<?xml version="1.0" standalone="no"?>
<!DOCTYPE svg PUBLIC "-//W3C//DTD SVG 20010904//EN"
 "http://www.w3.org/TR/2001/REC-SVG-20010904/DTD/svg10.dtd">
<svg version="1.0" xmlns="http://www.w3.org/2000/svg"
 width="538.000000pt" height="538.000000pt" viewBox="0 0 538.000000 538.000000"
 preserveAspectRatio="xMidYMid meet">
<metadata>
Created by potrace 1.11, written by Peter Selinger 2001-2013
</metadata>
<g transform="translate(0.000000,538.000000) scale(0.100000,-0.100000)"
fill="#000000" stroke="none">
<path d="M2769 5375 c-2 -2 -31 -6 -64 -9 -222 -24 -495 -118 -689 -237 -300
-185 -558 -496 -680 -824 -32 -85 -27 -77 -101 -162 -46 -53 -78 -79 -134
-108 -386 -201 -710 -573 -858 -984 -56 -158 -82 -272 -103 -461 -10 -89 -1
-360 16 -440 3 -14 7 -41 10 -60 22 -157 121 -414 226 -588 131 -218 262 -358
523 -561 6 -4 49 -31 95 -59 167 -99 354 -175 545 -219 75 -17 218 -34 320
-38 154 -6 205 -25 298 -112 242 -227 505 -373 812 -453 87 -22 93 -24 240
-44 92 -13 357 -15 410 -3 11 2 42 8 68 11 126 19 196 36 332 84 72 24 137 51
146 58 8 8 21 14 28 14 27 0 201 105 317 192 352 262 618 691 689 1113 3 17 7
41 10 55 30 167 26 421 -10 605 -20 102 -23 114 -36 152 -6 19 -8 45 -5 58 19
73 26 393 13 520 -4 33 -9 83 -12 110 -8 70 -52 265 -82 360 -112 355 -305
670 -575 935 -80 78 -105 111 -143 185 -167 325 -461 610 -775 752 -41 19 -84
38 -95 43 -87 40 -238 78 -420 106 -45 7 -311 15 -316 9z"/>
</g>
</svg>
